<svg width="97" height="21" viewBox="0 0 97 21" fill="none" xmlns="http://www.w3.org/2000/svg">
<path d="M1.56236 16.8034L0.163569 14.8235H1.17402L2.12414 16.2398L3.0818 14.8235H4.0847L2.68214 16.8034L4.15634 18.8711H3.15343L2.12414 17.356L1.09861 18.8711H0.0957031L1.56236 16.8034Z" fill="white"/>
<path d="M4.25437 14.8235H5.21957L6.06789 17.1181C6.19608 17.445 6.28154 17.7524 6.32427 18.0403H6.35444C6.37706 17.9061 6.41853 17.7439 6.47886 17.5536C6.53918 17.3609 6.8584 16.4508 7.43652 14.8235H8.39418L6.61082 19.409C6.28657 20.2508 5.74616 20.6716 4.98958 20.6716C4.79352 20.6716 4.60249 20.6509 4.41649 20.6094V19.9287C4.54971 19.958 4.70178 19.9726 4.8727 19.9726C5.3 19.9726 5.60037 19.7323 5.77381 19.2517L5.92839 18.8711L4.25437 14.8235Z" fill="white"/>
<path d="M13.0279 20.302H12.2022V18.8711H9.3443V20.302H8.52614V18.205H8.86547C9.16207 17.7927 9.39709 17.295 9.57052 16.7119C9.74647 16.1263 9.85078 15.4969 9.88346 14.8235H12.4171V18.205H13.0279V20.302ZM11.5462 18.205V15.4822H10.6488C10.6011 15.9848 10.5005 16.4801 10.3472 16.9681C10.1964 17.456 10.0116 17.8683 9.79297 18.205H11.5462Z" fill="white"/>
<path d="M17.4995 16.84C17.4995 17.5011 17.3248 18.0172 16.9754 18.388C16.626 18.7588 16.1397 18.9443 15.5163 18.9443C15.1267 18.9443 14.7824 18.8589 14.4832 18.6881C14.1841 18.5173 13.9541 18.2721 13.7933 17.9525C13.6324 17.6329 13.552 17.262 13.552 16.84C13.552 16.1837 13.7254 15.6713 14.0723 15.3029C14.4192 14.9345 14.908 14.7503 15.5389 14.7503C16.1422 14.7503 16.6198 14.9394 16.9717 15.3176C17.3236 15.6933 17.4995 16.2007 17.4995 16.84ZM14.4644 16.84C14.4644 17.7744 14.8201 18.2416 15.5314 18.2416C16.2352 18.2416 16.5871 17.7744 16.5871 16.84C16.5871 15.9153 16.2327 15.453 15.5239 15.453C15.1519 15.453 14.8816 15.5725 14.7132 15.8116C14.5473 16.0507 14.4644 16.3935 14.4644 16.84Z" fill="white"/>
<path d="M20.5761 16.7887V14.8235H21.4018V16.7887L23.0079 14.8235H23.943L22.3029 16.7814L24.09 18.8711H23.1135L21.4018 16.818V18.8711H20.5761V16.818L18.8681 18.8711H17.8954L19.6788 16.7814L18.0424 14.8235H18.9775L20.5761 16.7887Z" fill="white"/>
<path d="M26.5558 18.9443C25.9073 18.9443 25.3996 18.7613 25.0326 18.3953C24.6681 18.0269 24.4859 17.5207 24.4859 16.8766C24.4859 16.2154 24.6556 15.6957 24.9949 15.3176C25.3342 14.9394 25.8005 14.7503 26.3937 14.7503C26.9442 14.7503 27.379 14.9125 27.6982 15.237C28.0174 15.5615 28.1771 16.008 28.1771 16.5765V17.0413H25.3983C25.4109 17.4341 25.5202 17.7366 25.7263 17.9488C25.9325 18.1587 26.2228 18.2636 26.5973 18.2636C26.8436 18.2636 27.0724 18.2416 27.2835 18.1977C27.4971 18.1513 27.7259 18.0757 27.9697 17.9708V18.6698C27.7535 18.7698 27.5348 18.8406 27.3137 18.8821C27.0925 18.9235 26.8398 18.9443 26.5558 18.9443ZM26.3937 15.4017C26.1122 15.4017 25.886 15.4883 25.715 15.6616C25.5466 15.8348 25.4461 16.0873 25.4134 16.4191H27.3061C27.3011 16.0849 27.2181 15.8323 27.0573 15.6616C26.8964 15.4883 26.6752 15.4017 26.3937 15.4017Z" fill="white"/>
<path d="M30.8653 18.9443C30.2344 18.9443 29.7543 18.7662 29.425 18.41C29.0983 18.0513 28.9349 17.5377 28.9349 16.8692C28.9349 16.1886 29.1058 15.6652 29.4477 15.2993C29.792 14.9333 30.2884 14.7503 30.9369 14.7503C31.3768 14.7503 31.7727 14.8296 32.1246 14.9882L31.8569 15.6799C31.4824 15.5384 31.1732 15.4676 30.9294 15.4676C30.208 15.4676 29.8473 15.9324 29.8473 16.8619C29.8473 17.3157 29.9365 17.6573 30.115 17.8866C30.296 18.1135 30.5599 18.227 30.9068 18.227C31.3014 18.227 31.6747 18.1318 32.0266 17.9415V18.6918C31.8682 18.782 31.6985 18.8467 31.5176 18.8857C31.3391 18.9248 31.1217 18.9443 30.8653 18.9443Z" fill="white"/>
<path d="M36.14 14.8235V15.4969H34.7827V18.8711H33.8929V15.4969H32.5355V14.8235H36.14Z" fill="white"/>
<path d="M40.5626 15.8592C40.5626 16.3374 40.2748 16.6265 39.6992 16.7265V16.7558C40.0209 16.7924 40.2672 16.8912 40.4381 17.0522C40.6091 17.2133 40.6945 17.4219 40.6945 17.678C40.6945 18.0611 40.5437 18.3563 40.2421 18.5637C39.943 18.7686 39.5069 18.8711 38.9338 18.8711H36.9431V14.8235H38.9262C40.0171 14.8235 40.5626 15.1687 40.5626 15.8592ZM39.7859 17.6268C39.7859 17.4316 39.708 17.2938 39.5521 17.2133C39.3963 17.1303 39.1625 17.0888 38.8508 17.0888H37.8291V18.2343H38.8735C39.4817 18.2343 39.7859 18.0318 39.7859 17.6268ZM39.6765 15.9324C39.6765 15.7713 39.6112 15.6555 39.4805 15.5847C39.3523 15.5115 39.16 15.4749 38.9036 15.4749H37.8291V16.4484H38.7717C39.0683 16.4484 39.2932 16.4118 39.4465 16.3386C39.5999 16.263 39.6765 16.1276 39.6765 15.9324Z" fill="white"/>
<path d="M43.4318 18.9443C42.7833 18.9443 42.2755 18.7613 41.9086 18.3953C41.5441 18.0269 41.3619 17.5207 41.3619 16.8766C41.3619 16.2154 41.5315 15.6957 41.8709 15.3176C42.2102 14.9394 42.6765 14.7503 43.2697 14.7503C43.8201 14.7503 44.255 14.9125 44.5742 15.237C44.8934 15.5615 45.053 16.008 45.053 16.5765V17.0413H42.2743C42.2869 17.4341 42.3962 17.7366 42.6023 17.9488C42.8084 18.1587 43.0987 18.2636 43.4732 18.2636C43.7196 18.2636 43.9483 18.2416 44.1595 18.1977C44.3731 18.1513 44.6018 18.0757 44.8456 17.9708V18.6698C44.6295 18.7698 44.4108 18.8406 44.1896 18.8821C43.9684 18.9235 43.7158 18.9443 43.4318 18.9443ZM43.2697 15.4017C42.9881 15.4017 42.7619 15.4883 42.591 15.6616C42.4226 15.8348 42.322 16.0873 42.2894 16.4191H44.1821C44.177 16.0849 44.0941 15.8323 43.9332 15.6616C43.7724 15.4883 43.5512 15.4017 43.2697 15.4017Z" fill="white"/>
<path d="M46.9457 14.8235V16.4484H48.9101V14.8235H49.7961V18.8711H48.9101V17.1254H46.9457V18.8711H46.0597V14.8235H46.9457Z" fill="white"/>
<path d="M51.9527 14.8235V16.4484H53.917V14.8235H54.8031V18.8711H53.917V17.1254H51.9527V18.8711H51.0667V14.8235H51.9527Z" fill="white"/>
<path d="M58.6827 18.8711L58.5055 18.3075H58.4754C58.2743 18.5539 58.0719 18.7223 57.8683 18.8125C57.6647 18.9004 57.4033 18.9443 57.0841 18.9443C56.6744 18.9443 56.3539 18.8369 56.1227 18.6222C55.8939 18.4075 55.7796 18.1038 55.7796 17.711C55.7796 17.2938 55.9392 16.979 56.2584 16.7668C56.5776 16.5545 57.064 16.4386 57.7175 16.4191L58.4377 16.3972V16.1812C58.4377 15.9226 58.3748 15.7299 58.2491 15.603C58.126 15.4737 57.9337 15.409 57.6723 15.409C57.4586 15.409 57.2538 15.4395 57.0577 15.5005C56.8617 15.5615 56.6731 15.6335 56.4922 15.7165L56.2056 15.1016C56.4318 14.987 56.6794 14.9004 56.9484 14.8418C57.2173 14.7808 57.4712 14.7503 57.71 14.7503C58.2403 14.7503 58.64 14.8625 58.9089 15.087C59.1804 15.3115 59.3161 15.664 59.3161 16.1446V18.8711H58.6827ZM57.3631 18.2855C57.6848 18.2855 57.9425 18.1989 58.136 18.0257C58.3321 17.85 58.4301 17.6048 58.4301 17.2901V16.9388L57.8947 16.9607C57.4775 16.9754 57.1733 17.0437 56.9823 17.1657C56.7938 17.2852 56.6995 17.4694 56.6995 17.7183C56.6995 17.8988 56.7548 18.0391 56.8654 18.1391C56.976 18.2367 57.1419 18.2855 57.3631 18.2855Z" fill="white"/>
<path d="M60.9789 18.8711H59.9873L61.1485 17.2133C60.867 17.1352 60.6458 16.9961 60.4849 16.7961C60.3241 16.5936 60.2436 16.3435 60.2436 16.0458C60.2436 15.6628 60.3844 15.3639 60.6659 15.1492C60.9474 14.9321 61.332 14.8235 61.8196 14.8235H63.7199V18.8711H62.8301V17.3121H61.9893L60.9789 18.8711ZM61.107 16.0531C61.107 16.2605 61.1875 16.4167 61.3483 16.5216C61.5117 16.624 61.7304 16.6753 62.0044 16.6753H62.8301V15.4749H61.8649C61.6236 15.4749 61.4363 15.5249 61.3031 15.625C61.1724 15.725 61.107 15.8677 61.107 16.0531Z" fill="white"/>
<path d="M69.6883 14.8235V15.4969H67.8785V18.8711H66.9925V14.8235H69.6883Z" fill="white"/>
<path d="M73.1004 18.8711L72.9232 18.3075H72.8931C72.692 18.5539 72.4896 18.7223 72.286 18.8125C72.0824 18.9004 71.821 18.9443 71.5018 18.9443C71.0921 18.9443 70.7716 18.8369 70.5404 18.6222C70.3116 18.4075 70.1973 18.1038 70.1973 17.711C70.1973 17.2938 70.3569 16.979 70.6761 16.7668C70.9953 16.5545 71.4817 16.4386 72.1352 16.4191L72.8554 16.3972V16.1812C72.8554 15.9226 72.7925 15.7299 72.6668 15.603C72.5437 15.4737 72.3514 15.409 72.09 15.409C71.8763 15.409 71.6715 15.4395 71.4754 15.5005C71.2794 15.5615 71.0909 15.6335 70.9099 15.7165L70.6233 15.1016C70.8496 14.987 71.0971 14.9004 71.3661 14.8418C71.635 14.7808 71.8889 14.7503 72.1277 14.7503C72.6581 14.7503 73.0577 14.8625 73.3267 15.087C73.5981 15.3115 73.7338 15.664 73.7338 16.1446V18.8711H73.1004ZM71.7808 18.2855C72.1026 18.2855 72.3602 18.1989 72.5537 18.0257C72.7498 17.85 72.8478 17.6048 72.8478 17.2901V16.9388L72.3124 16.9607C71.8952 16.9754 71.5911 17.0437 71.4 17.1657C71.2115 17.2852 71.1172 17.4694 71.1172 17.7183C71.1172 17.8988 71.1725 18.0391 71.2831 18.1391C71.3937 18.2367 71.5596 18.2855 71.7808 18.2855Z" fill="white"/>
<path d="M78.3977 18.8711H77.5042V15.4969H76.3542C76.2838 16.3654 76.1883 17.0437 76.0677 17.5316C75.9495 18.0196 75.7937 18.3758 75.6002 18.6003C75.4091 18.8247 75.1603 18.937 74.8536 18.937C74.6601 18.937 74.498 18.9101 74.3673 18.8564V18.1831C74.4603 18.2172 74.5533 18.2343 74.6463 18.2343C74.9026 18.2343 75.1037 17.9549 75.2495 17.3962C75.3978 16.8351 75.5134 15.9775 75.5964 14.8235H78.3977V18.8711Z" fill="white"/>
<path d="M81.4894 18.9443C80.8409 18.9443 80.3332 18.7613 79.9662 18.3953C79.6017 18.0269 79.4195 17.5207 79.4195 16.8766C79.4195 16.2154 79.5892 15.6957 79.9285 15.3176C80.2678 14.9394 80.7341 14.7503 81.3273 14.7503C81.8777 14.7503 82.3126 14.9125 82.6318 15.237C82.951 15.5615 83.1106 16.008 83.1106 16.5765V17.0413H80.3319C80.3445 17.4341 80.4538 17.7366 80.6599 17.9488C80.866 18.1587 81.1563 18.2636 81.5309 18.2636C81.7772 18.2636 82.0059 18.2416 82.2171 18.1977C82.4307 18.1513 82.6595 18.0757 82.9033 17.9708V18.6698C82.6871 18.7698 82.4684 18.8406 82.2472 18.8821C82.026 18.9235 81.7734 18.9443 81.4894 18.9443ZM81.3273 15.4017C81.0458 15.4017 80.8195 15.4883 80.6486 15.6616C80.4802 15.8348 80.3797 16.0873 80.347 16.4191H82.2397C82.2347 16.0849 82.1517 15.8323 81.9908 15.6616C81.83 15.4883 81.6088 15.4017 81.3273 15.4017Z" fill="white"/>
<path d="M86.2325 18.9443C85.7046 18.9443 85.2949 18.7601 85.0033 18.3917H84.9505C84.9857 18.7332 85.0033 18.9406 85.0033 19.0138V20.6716H84.1173V14.8235H84.8337C84.8538 14.8991 84.8953 15.0797 84.9581 15.3651H85.0033C85.2798 14.9552 85.6946 14.7503 86.2475 14.7503C86.7678 14.7503 87.1725 14.9333 87.4616 15.2993C87.7532 15.6652 87.8989 16.1788 87.8989 16.84C87.8989 17.5011 87.7506 18.0172 87.454 18.388C87.16 18.7588 86.7528 18.9443 86.2325 18.9443ZM86.0175 15.453C85.6657 15.453 85.408 15.553 85.2446 15.7531C85.0838 15.9531 85.0033 16.2727 85.0033 16.7119V16.84C85.0033 17.3328 85.0838 17.6902 85.2446 17.9122C85.4055 18.1318 85.6682 18.2416 86.0326 18.2416C86.3393 18.2416 86.5756 18.1196 86.7414 17.8757C86.9073 17.6317 86.9903 17.284 86.9903 16.8326C86.9903 16.3789 86.9073 16.0361 86.7414 15.8043C86.5781 15.5701 86.3368 15.453 86.0175 15.453Z" fill="white"/>
<path d="M90.7493 18.9443C90.1008 18.9443 89.5931 18.7613 89.2261 18.3953C88.8616 18.0269 88.6794 17.5207 88.6794 16.8766C88.6794 16.2154 88.8491 15.6957 89.1884 15.3176C89.5277 14.9394 89.994 14.7503 90.5872 14.7503C91.1377 14.7503 91.5725 14.9125 91.8917 15.237C92.2109 15.5615 92.3706 16.008 92.3706 16.5765V17.0413H89.5918C89.6044 17.4341 89.7137 17.7366 89.9198 17.9488C90.1259 18.1587 90.4163 18.2636 90.7908 18.2636C91.0371 18.2636 91.2658 18.2416 91.477 18.1977C91.6906 18.1513 91.9194 18.0757 92.1632 17.9708V18.6698C91.947 18.7698 91.7283 18.8406 91.5071 18.8821C91.2859 18.9235 91.0333 18.9443 90.7493 18.9443ZM90.5872 15.4017C90.3057 15.4017 90.0795 15.4883 89.9085 15.6616C89.7401 15.8348 89.6396 16.0873 89.6069 16.4191H91.4996C91.4946 16.0849 91.4116 15.8323 91.2508 15.6616C91.0899 15.4883 90.8687 15.4017 90.5872 15.4017Z" fill="white"/>
<path d="M93.8033 18.8711H92.8117L93.9729 17.2133C93.6914 17.1352 93.4702 16.9961 93.3094 16.7961C93.1485 16.5936 93.0681 16.3435 93.0681 16.0458C93.0681 15.6628 93.2088 15.3639 93.4903 15.1492C93.7719 14.9321 94.1564 14.8235 94.6441 14.8235H96.5443V18.8711H95.6545V17.3121H94.8137L93.8033 18.8711ZM93.9315 16.0531C93.9315 16.2605 94.0119 16.4167 94.1728 16.5216C94.3361 16.624 94.5548 16.6753 94.8288 16.6753H95.6545V15.4749H94.6893C94.448 15.4749 94.2607 15.5249 94.1275 15.625C93.9968 15.725 93.9315 15.8677 93.9315 16.0531Z" fill="white"/>
<path d="M0 11.7307H6.52484C9.09814 11.7307 10.4153 10.5995 10.4153 8.44607V8.41256C10.4153 6.81216 9.5779 5.84019 7.96414 5.56368V5.41286C9.31621 5.16149 10.0228 4.30683 10.0228 2.91591V2.87401C10.0228 0.980348 8.79283 0 6.38527 0H0V11.7307ZM2.5733 4.80119V1.65905H5.61764C6.84759 1.65905 7.4582 2.17855 7.4582 3.20079V3.23431C7.4582 4.27331 6.84759 4.80119 5.61764 4.80119H2.5733ZM2.5733 10.0632V6.32618H5.69615C7.04822 6.32618 7.7199 6.94623 7.7199 8.16119V8.1947C7.7199 9.4348 7.04822 10.0632 5.69615 10.0632H2.5733Z" fill="white"/>
<path d="M12.8393 0V11.7307H15.3777V0H12.8393Z" fill="white"/>
<path d="M20.689 11.9485C22.7389 11.9485 24.2305 11.0687 24.7801 9.57724L24.9545 9.61914C24.6231 11.2447 24.972 11.9485 26.9783 11.9485C27.2313 11.9485 27.4842 11.9234 27.6936 11.8899L27.9902 10.4403L27.554 10.4319C27.0742 10.4235 26.9347 10.3146 26.9347 9.71969V5.68937C26.9347 3.69516 25.5564 2.73995 22.6168 2.73995C19.4939 2.73995 17.915 3.92139 18.0459 5.96588L20.5494 6.16697C20.4447 4.81795 21.16 4.20628 22.5644 4.20628C23.8205 4.20628 24.4137 4.65037 24.4137 5.66423V6.1586L21.9364 6.59431C19.459 7.03839 17.8191 7.79251 17.8191 9.6359V9.66104C17.8191 11.119 18.8484 11.9485 20.689 11.9485ZM21.7008 10.323C20.846 10.323 20.3837 10.0297 20.3837 9.42642V9.40966C20.3837 8.54662 21.1949 8.1947 22.7999 7.89306L24.4137 7.59141V8.00198C24.4137 9.35101 23.1489 10.323 21.7008 10.323Z" fill="white"/>
<path d="M30.1263 11.7307H32.6647V7.64169C32.6647 5.66423 33.6329 4.44089 35.238 4.44089C36.433 4.44089 37.0262 5.0358 37.0262 6.17535V11.7307H39.5646V5.58882C39.5646 3.74543 38.4393 2.77346 36.3458 2.77346C34.4442 2.77346 33.1444 3.57785 32.3768 5.25366L32.2023 5.17825C32.5513 4.18114 32.6734 3.58623 32.6734 2.93266H30.1263V11.7307Z" fill="white"/>
<path d="M47.1177 11.9401C50.1097 11.9401 51.7845 10.7838 52.0375 8.54662L49.4729 8.27011C49.3683 9.67779 48.5657 10.39 47.1264 10.39C45.5127 10.39 44.6753 9.41804 44.6753 7.49924V7.08867C44.6753 5.21176 45.5214 4.26493 47.1003 4.26493C48.557 4.26493 49.3159 5.04418 49.4293 6.60268L51.959 6.32618C51.7584 3.95491 50.1446 2.72319 47.109 2.72319C43.8117 2.72319 42.0758 4.27331 42.0758 7.23949V7.34842C42.0758 10.3649 43.7942 11.9401 47.1177 11.9401Z" fill="white"/>
<path d="M54.5661 11.7307H57.1045V7.64169C57.1045 5.66423 58.0641 4.44927 59.6778 4.44927C60.8729 4.44927 61.4661 5.0358 61.4661 6.17535V11.7307H64.0045V5.58882C64.0045 3.74543 62.8705 2.77346 60.7857 2.77346C58.8666 2.77346 57.5756 3.57785 56.8167 5.24528L56.6335 5.17825C56.9737 4.2398 57.0958 3.54433 57.1045 2.71481V0H54.5661V11.7307Z" fill="white"/>
<path d="M69.2722 11.9485C71.3221 11.9485 72.8137 11.0687 73.3633 9.57724L73.5377 9.61914C73.2063 11.2447 73.5552 11.9485 75.5615 11.9485C75.8144 11.9485 76.0674 11.9234 76.2768 11.8899L76.5733 10.4403L76.1372 10.4319C75.6574 10.4235 75.5179 10.3146 75.5179 9.71969V5.68937C75.5179 3.69516 74.1396 2.73995 71.1999 2.73995C68.0771 2.73995 66.4982 3.92139 66.6291 5.96588L69.1326 6.16697C69.0279 4.81795 69.7432 4.20628 71.1476 4.20628C72.4037 4.20628 72.9969 4.65037 72.9969 5.66423V6.1586L70.5196 6.59431C68.0422 7.03839 66.4023 7.79251 66.4023 9.6359V9.66104C66.4023 11.119 67.4316 11.9485 69.2722 11.9485ZM70.284 10.323C69.4292 10.323 68.9669 10.0297 68.9669 9.42642V9.40966C68.9669 8.54662 69.7781 8.1947 71.3831 7.89306L72.9969 7.59141V8.00198C72.9969 9.35101 71.7321 10.323 70.284 10.323Z" fill="white"/>
<path d="M78.7094 11.7307H81.2478V8.05226C81.2478 5.7564 81.9893 4.91012 83.9258 4.77605L85.1732 4.68388L84.8766 2.65616C82.8267 2.80698 81.8759 3.42703 80.9338 5.25366L80.7681 5.17825C81.1781 4.00518 81.274 3.53596 81.2566 2.93266H78.7094V11.7307Z" fill="white"/>
<path d="M90.7811 11.8899C92.6653 11.8899 93.8952 11.052 94.5145 9.53535L94.6977 9.594C94.4012 10.5157 94.2441 11.2447 94.2354 11.7307H96.8V0H94.2616V2.38803C94.2616 3.30972 94.3924 4.05546 94.7065 5.06932L94.532 5.13635C93.9127 3.62812 92.674 2.7567 90.7811 2.7567C88.1642 2.7567 86.7859 4.29007 86.7859 7.22273V7.43221C86.7859 10.3565 88.1642 11.8899 90.7811 11.8899ZM91.7406 10.3816C90.1705 10.3816 89.3505 9.41804 89.3505 7.516V7.13056C89.3505 5.22014 90.1705 4.24817 91.7406 4.24817C93.3806 4.24817 94.2616 5.27042 94.2616 7.17246V7.47411C94.2616 9.36777 93.3806 10.3816 91.7406 10.3816Z" fill="white"/>
</svg>
